Coordinates
version=1
nRows=24
nColumns=24
inDegrees=yes

Units are S.I. units (second, meters, Newtons, ...)
Angles are in degrees.

endheader
time	pelvis_tilt	pelvis_list	pelvis_rotation	pelvis_tx	pelvis_ty	pelvis_tz	hip_flexion_r	hip_adduction_r	hip_rotation_r	knee_angle_r	ankle_angle_r	subtalar_angle_r	mtp_angle_r	hip_flexion_l	hip_adduction_l	hip_rotation_l	knee_angle_l	ankle_angle_l	subtalar_angle_l	mtp_angle_l	lumbar_extension	lumbar_bending	lumbar_rotation
      5.87500000	     14.31765800	     10.18250374	     -0.97574393	      2.14203993	      0.75061680	     -0.25837397	     -0.48147959	    -14.47129428	     -3.91154725	    -67.53482430	     19.03338122	     -7.16901112	      0.00000000	     -2.28276584	     17.94055952	      4.20991978	    -20.88020057	     23.64128333	      0.72140938	      0.00000000	    -34.07556736	     -8.21893989	     -2.13746774
      5.88000000	     14.21557172	     10.25916054	     -0.61248903	      2.14877650	      0.75131977	     -0.25881907	      0.75402325	    -14.45944125	     -3.75452365	    -67.50104231	     19.93867099	     -7.07124788	      0.00000000	     -3.15039770	     18.00012356	      4.79101018	    -20.29082349	     23.82283898	      0.81331786	      0.00000000	    -34.15117702	     -8.07649265	     -2.71591074
      5.88500000	     14.11827151	     10.32487740	     -0.23580051	      2.15549358	      0.75197055	     -0.25926223	      1.96058392	    -14.43456025	     -3.60057051	    -67.35848029	     20.77856868	     -6.87340387	      0.00000000	     -4.02707034	     18.02987886	      5.36200226	    -19.69592379	     24.01735922	      0.93118523	      0.00000000	    -34.23800258	     -7.91833575	     -3.30839477
      5.89000000	     14.02140802	     10.39193663	      0.16506242	      2.16220250	      0.75256112	     -0.25970737	      3.13658837	    -14.42063359	     -3.47978626	    -67.11332914	     21.53769863	     -6.56176177	      0.00000000	     -4.91257670	     18.04174811	      5.94754483	    -19.09123859	     24.19800338	      1.07027512	      0.00000000	    -34.33298634	     -7.75451273	     -3.91312559
      5.89500000	     13.93438827	     10.45848234	      0.57707099	      2.16889529	      0.75309552	     -0.26014315	      4.27322830	    -14.40927001	     -3.36885245	    -66.76236677	     22.21484209	     -6.20872139	      0.00000000	     -5.80641827	     18.03319605	      6.51191063	    -18.49142307	     24.38490944	      1.23293555	      0.00000000	    -34.44452735	     -7.58605767	     -4.53662063
      5.90000000	     13.85653411	     10.52804011	      1.00589673	      2.17558606	      0.75356654	     -0.26058598	      5.36591950	    -14.40760724	     -3.27285768	    -66.31116596	     22.80945430	     -5.83461173	      0.00000000	     -6.71018794	     18.00757316	      7.05794005	    -17.89681751	     24.57811205	      1.42656459	      0.00000000	    -34.57000450	     -7.40962053	     -5.17563144
      5.90500000	     13.78830957	     10.60018011	      1.44792193	      2.18227173	      0.75397717	     -0.26100644	      6.41293825	    -14.41209927	     -3.19257164	    -65.75747196	     23.31724296	     -5.46877597	      0.00000000	     -7.62235036	     17.96140107	      7.58239090	    -17.30883989	     24.77950805	      1.65113229	      0.00000000	    -34.71091572	     -7.23612848	     -5.82706955
      5.91000000	     13.72954258	     10.67845583	      1.90215582	      2.18895387	      0.75432326	     -0.26142979	      7.41142919	    -14.43273452	     -3.13144629	    -65.09983923	     23.74981753	     -5.14447032	      0.00000000	     -8.53803303	     17.90179080	      8.08310991	    -16.73695391	     24.99479908	      1.91271051	      0.00000000	    -34.86277262	     -7.06228374	     -6.48008380
      5.91500000	     13.67652008	     10.75813253	      2.36022767	      2.19565193	      0.75460198	     -0.26182245	      8.36674963	    -14.45726079	     -3.07380231	    -64.34491822	     24.09021721	     -4.87597899	      0.00000000	     -9.46001624	     17.82092053	      8.55678038	    -16.16582274	     25.21870431	      2.20274170	      0.00000000	    -35.01941499	     -6.89181974	     -7.14408183
      5.92000000	     13.62934445	     10.84372078	      2.82682279	      2.20235080	      0.75481246	     -0.26219716	      9.27617949	    -14.49765442	     -3.03742149	    -63.49172230	     24.35372452	     -4.67863131	      0.00000000	    -10.38047047	     17.72593872	      9.00451114	    -15.61092762	     25.45243813	      2.51882645	      0.00000000	    -35.18349257	     -6.72856168	     -7.80644317
      5.92500000	     13.59204923	     10.93302636	      3.29814139	      2.20906143	      0.75495610	     -0.26259470	     10.13201957	    -14.55545436	     -3.01802733	    -62.53907237	     24.53646650	     -4.55097575	      0.00000000	    -11.30427334	     17.62077301	      9.44018330	    -15.07454884	     25.69228960	      2.85835930	      0.00000000	    -35.35195282	     -6.55510221	     -8.46729718
      5.93000000	     13.55957903	     11.02666042	      3.77653761	      2.21577746	      0.75503475	     -0.26296226	     10.93828905	    -14.62421699	     -3.01752453	    -61.48779049	     24.64325792	     -4.50669409	      0.00000000	    -12.22521877	     17.49955208	      9.85802990	    -14.55464918	     25.93953944	      3.21289903	      0.00000000	    -35.52514715	     -6.39192445	     -9.12063918
      5.93500000	     13.52756818	     11.12288524	      4.25384246	      2.22251027	      0.75503970	     -0.26332361	     11.70189134	    -14.70678525	     -3.03199793	    -60.34389539	     24.67729302	     -4.54771321	      0.00000000	    -13.13781529	     17.36722038	     10.25162641	    -14.05188599	     26.19422580	      3.57724464	      0.00000000	    -35.69462940	     -6.23216352	     -9.76522063
      5.94000000	     13.48489170	     11.23459062	      4.73486390	      2.22925521	      0.75496326	     -0.26365702	     12.43390656	    -14.81714499	     -3.07118797	    -59.11093498	     24.65097335	     -4.68163797	      0.00000000	    -14.02809699	     17.23524578	     10.61136167	    -13.57094581	     26.44801093	      3.94710892	      0.00000000	    -35.84895248	     -6.09570885	    -10.40514739
      5.94500000	     13.43830894	     11.34666988	      5.21635102	      2.23600860	      0.75481521	     -0.26399479	     13.12397791	    -14.94157054	     -3.13207896	    -57.78305760	     24.55800817	     -4.88089493	      0.00000000	    -14.90392808	     17.09297914	     10.96300827	    -13.10897980	     26.70515950	      4.32429054	      0.00000000	    -35.99455982	     -5.95852267	    -11.02972416
      5.95000000	     13.38208473	     11.46592821	      5.69042536	      2.24277532	      0.75459263	     -0.26431995	     13.78178979	    -15.08636155	     -3.21697011	    -56.36682232	     24.41081907	     -5.13640700	      0.00000000	    -15.75718194	     16.95090381	     11.29299744	    -12.66897826	     26.95639744	      4.70039817	      0.00000000	    -36.12415631	     -5.83596791	    -11.63575530
      5.95500000	     13.32020341	     11.58533734	      6.16290513	      2.24955023	      0.75430556	     -0.26462724	     14.39722800	    -15.24213539	     -3.33361004	    -54.85831517	     24.20918143	     -5.42844236	      0.00000000	    -16.58884827	     16.79978532	     11.60238531	    -12.25739901	     27.21427981	      5.07326613	      0.00000000	    -36.24459233	     -5.71946835	    -12.23164871
      5.96000000	     13.24816157	     11.70795115	      6.62730763	      2.25633506	      0.75395168	     -0.26491997	     14.97675864	    -15.41206616	     -3.47767073	    -53.26012187	     23.96858050	     -5.73368023	      0.00000000	    -17.39496899	     16.64666525	     11.88928937	    -11.87099133	     27.47080090	      5.44630023	      0.00000000	    -36.35035086	     -5.61510841	    -12.80394942
      5.96500000	     13.15482565	     11.84384867	      7.08781011	      2.26313155	      0.75352284	     -0.26521371	     15.53298874	    -15.61134755	     -3.65523317	    -51.58182150	     23.70746447	     -6.02896299	      0.00000000	    -18.16694387	     16.50403821	     12.13689810	    -11.50574240	     27.71387424	      5.81333997	      0.00000000	    -36.43001321	     -5.52984858	    -13.36129883
      5.97000000	     13.04444640	     11.98215380	      7.53974818	      2.26994047	      0.75303098	     -0.26549730	     16.05817833	    -15.82464935	     -3.87083932	    -49.81709833	     23.43311242	     -6.28002663	      0.00000000	    -18.90522806	     16.36242057	     12.35830263	    -11.16799145	     27.95299571	      6.18320399	      0.00000000	    -36.48753484	     -5.45586942	    -13.89665843
      5.97500000	     12.92255462	     12.11892092	      7.97616236	      2.27676374	      0.75248390	     -0.26575175	     16.54639143	    -16.04501687	     -4.13309553	    -47.96548164	     23.15953638	     -6.45613442	      0.00000000	    -19.61331093	     16.21836025	     12.55087618	    -10.85985194	     28.19619560	      6.56335120	      0.00000000	    -36.52958568	     -5.39693105	    -14.41414594
      5.98000000	     12.78259762	     12.26179901	      8.40149259	      2.28360953	      0.75188185	     -0.26599118	     17.00177177	    -16.28057365	     -4.44365755	    -46.03305059	     22.90589684	     -6.52295727	      0.00000000	    -20.28800328	     16.08102032	     12.70083938	    -10.57823641	     28.43220246	      6.95251041	      0.00000000	    -36.54871605	     -5.35707700	    -14.91232549
      5.98500000	     12.63819015	     12.40317904	      8.81198080	      2.29047546	      0.75123935	     -0.26622233	     17.40767433	    -16.52125708	     -4.80920202	    -44.01900285	     22.69080873	     -6.43771141	      0.00000000	    -20.94392737	     15.94012042	     12.82349825	    -10.31976070	     28.67179801	      7.38324935	      0.00000000	    -36.55766196	     -5.32226121	    -15.38332881
      5.99000000	     12.46040141	     12.55088905	      9.21785719	      2.29737075	      0.75054103	     -0.26643314	     17.79409212	    -16.77724625	     -5.24403243	    -41.93327254	     22.50857496	     -6.19142532	      0.00000000	    -21.54803677	     15.80806652	     12.88973054	    -10.09403083	     28.88817071	      7.80549891	      0.00000000	    -36.52912386	     -5.31051469	    -15.85119103
